<?xml version="1.0" standalone="no"?>
<!DOCTYPE svg PUBLIC "-//W3C//DTD SVG 20010904//EN"
 "http://www.w3.org/TR/2001/REC-SVG-20010904/DTD/svg10.dtd">
<svg version="1.0" xmlns="http://www.w3.org/2000/svg"
 width="960.000000pt" height="960.000000pt" viewBox="0 0 960.000000 960.000000"
 preserveAspectRatio="xMidYMid meet">
<metadata>
Created by potrace 1.16, written by Peter Selinger 2001-2019
</metadata>
<g transform="translate(0.000000,960.000000) scale(0.100000,-0.100000)"
fill="#000000" stroke="none">
<path d="M4640 8039 c-782 -79 -1425 -375 -1958 -902 -257 -254 -444 -506
-608 -820 -131 -252 -217 -514 -278 -847 -68 -372 -67 -802 3 -1185 10 -55 17
-101 16 -103 -5 -6 -48 20 -97 59 -66 52 -108 64 -213 63 -109 -1 -181 -25
-258 -88 -86 -70 -97 -130 -30 -158 81 -32 173 -82 211 -113 80 -65 170 -43
281 66 62 62 73 85 45 96 -10 4 -26 -6 -45 -30 -37 -45 -119 -106 -159 -117
-38 -11 -71 0 -117 40 -36 32 -143 90 -166 90 -7 0 -22 6 -33 14 -18 14 -18
16 16 51 56 58 150 99 239 104 94 4 135 -8 209 -64 33 -25 77 -51 98 -59 37
-12 38 -14 61 -106 153 -609 504 -1183 976 -1597 126 -111 289 -236 356 -274
23 -12 41 -26 41 -30 0 -4 -55 -49 -122 -100 -157 -118 -246 -195 -269 -234
-37 -60 -16 -146 52 -213 59 -57 131 -63 249 -19 131 48 222 139 320 322 24
44 45 82 47 84 2 3 45 -14 96 -37 355 -160 707 -245 1132 -273 327 -22 693 12
881 82 226 84 477 196 589 264 50 31 84 31 182 1 123 -39 204 -49 342 -43 326
13 566 151 696 399 40 76 49 134 23 151 -14 9 -28 1 -82 -51 -104 -101 -150
-110 -320 -67 -184 47 -347 44 -460 -8 -97 -45 -252 -217 -244 -272 5 -35 31
-22 63 33 40 69 123 152 183 185 103 56 270 60 455 12 155 -40 221 -32 307 36
27 22 50 37 50 33 0 -22 -85 -139 -141 -194 -156 -154 -351 -218 -627 -208
-106 4 -140 10 -207 34 -56 20 -99 28 -142 28 -54 0 -69 -5 -120 -38 -94 -60
-353 -174 -573 -251 -208 -74 -518 -99 -892 -75 -157 11 -335 33 -345 44 -10
9 46 154 112 291 215 446 547 668 1033 692 110 5 122 8 122 25 0 16 -10 18
-120 18 -235 0 -459 -66 -648 -191 -88 -57 -217 -183 -277 -267 -28 -39 -52
-71 -55 -72 -3 0 -11 20 -17 44 -7 23 -24 54 -37 67 -14 13 -26 27 -26 30 0 4
19 10 43 13 97 15 226 108 296 212 64 97 127 292 151 464 16 113 13 332 -4
395 -39 144 -127 255 -251 316 -63 31 -78 34 -155 34 -84 0 -87 -1 -150 -42
-121 -78 -209 -106 -290 -91 -55 10 -84 -1 -73 -27 7 -20 97 -83 157 -111 28
-13 69 -24 91 -24 58 0 66 -9 59 -61 l-6 -44 -97 0 c-88 0 -102 -3 -162 -32
-133 -66 -269 -238 -349 -443 -28 -70 -128 -466 -136 -536 -6 -50 -10 -56 -53
-83 -25 -17 -89 -62 -140 -100 l-94 -71 -36 22 c-161 98 -338 244 -526 432
-380 382 -657 860 -800 1381 l-33 120 69 12 c65 11 144 37 362 117 101 37 219
57 546 91 175 18 188 18 131 -2 -97 -34 -158 -92 -206 -198 -49 -107 -44 -345
6 -345 23 0 23 -3 9 97 -28 202 78 383 240 409 41 7 44 6 36 -12 -41 -99 -56
-192 -44 -285 16 -133 62 -216 191 -354 91 -96 130 -122 173 -111 37 9 52 41
75 150 27 133 27 291 0 379 -43 139 -158 249 -295 283 l-50 12 52 1 c192 3
637 -62 962 -140 83 -20 123 -31 371 -99 63 -17 266 -78 450 -135 375 -117
516 -153 735 -190 413 -69 902 -76 1355 -19 327 41 780 132 780 157 0 6 6 18
14 26 21 24 50 111 90 268 133 522 124 1001 -29 1534 -150 520 -449 1005 -888
1442 -483 479 -1073 763 -1729 832 -159 16 -503 18 -648 4z m495 -39 c734 -47
1342 -325 1875 -860 561 -563 878 -1207 955 -1943 39 -367 -10 -788 -133
-1152 l-27 -80 -185 -41 c-296 -66 -527 -102 -808 -124 -79 -7 -146 -10 -148
-7 -3 3 3 20 13 39 15 27 18 56 18 158 0 69 -4 155 -9 193 -8 63 -7 67 12 67
11 0 38 7 61 15 36 12 41 12 41 -1 0 -29 31 -74 62 -90 109 -56 337 121 338
263 0 17 -4 34 -10 38 -13 8 -45 -26 -69 -72 -39 -76 -117 -132 -162 -118 -28
9 -24 19 29 61 26 21 62 54 81 73 37 39 81 124 81 156 0 15 22 -2 88 -66 154
-151 270 -240 386 -295 91 -44 137 -45 177 -5 27 27 29 35 29 102 0 136 -55
284 -154 416 -104 138 -429 413 -746 631 l-75 51 -19 103 c-39 223 -115 496
-176 640 -79 185 -233 371 -361 436 -79 40 -175 56 -250 42 -29 -6 -53 -9 -55
-8 -1 2 -5 28 -9 59 -5 41 -3 58 7 65 7 6 53 20 101 32 135 32 265 114 242
152 -4 7 -36 8 -93 4 -77 -5 -94 -3 -152 19 -36 13 -107 49 -158 80 -105 62
-155 74 -242 57 -140 -26 -286 -142 -353 -280 -57 -115 -70 -195 -64 -390 6
-182 21 -282 68 -440 88 -300 261 -492 465 -516 l55 -7 -29 -31 c-48 -50 -65
-94 -66 -166 -1 -50 2 -65 13 -65 10 0 19 20 27 60 6 33 16 72 22 86 16 40 85
93 147 113 56 17 77 38 57 58 -7 7 -35 7 -91 -1 -97 -13 -173 -1 -246 37 -74
40 -184 154 -227 237 -69 133 -131 362 -144 531 -6 84 -5 96 18 145 82 177
273 294 498 306 l95 6 3 -109 c2 -93 -1 -121 -23 -193 -32 -108 -32 -190 -1
-313 28 -109 49 -154 105 -225 70 -89 167 -158 659 -468 l93 -58 -52 -25 c-68
-32 -125 -90 -158 -161 -23 -49 -26 -69 -26 -156 0 -82 4 -110 23 -157 19 -45
21 -60 12 -78 -41 -76 -100 -323 -121 -504 -13 -105 -14 -108 -54 -152 -25
-26 -50 -44 -63 -44 -20 0 -22 5 -21 48 0 26 8 92 18 147 22 121 17 137 -40
133 -28 -1 -43 3 -52 17 -12 15 -22 17 -56 11 -121 -19 -212 -119 -245 -267
-8 -37 -73 -54 -201 -54 -122 0 -191 24 -254 87 -63 64 -84 131 -78 248 4 99
19 147 63 211 66 96 226 116 280 34 13 -21 16 -39 11 -91 -6 -56 -4 -67 14
-85 28 -28 76 -22 102 13 24 32 33 109 18 163 -14 52 -62 110 -114 136 -49 26
-160 38 -237 26 -112 -17 -215 -104 -260 -224 -34 -88 -39 -239 -11 -331 44
-147 164 -254 331 -297 77 -20 251 -16 315 7 38 14 40 14 63 -13 26 -32 81
-51 123 -42 15 3 47 21 69 40 39 34 42 35 55 17 8 -11 15 -22 15 -25 0 -14 61
-31 87 -25 16 4 45 20 65 37 20 16 39 29 41 29 2 0 7 -42 10 -92 3 -51 13
-118 21 -148 8 -30 13 -57 11 -59 -2 -2 -107 1 -232 8 -463 22 -716 69 -1203
222 -300 93 -342 106 -535 160 -553 156 -978 230 -1315 231 -306 0 -749 -57
-910 -117 -192 -73 -296 -106 -352 -112 l-56 -6 -11 54 c-26 130 -52 327 -63
493 -24 361 31 802 144 1156 219 687 725 1313 1370 1696 472 280 999 425 1613
442 28 1 122 -3 210 -8z m1130 -1449 c78 -37 154 -106 228 -206 103 -139 164
-286 236 -571 36 -141 73 -316 68 -321 -5 -4 -446 273 -557 351 -98 69 -201
169 -229 223 -10 21 -31 79 -46 128 -38 121 -38 201 0 320 15 50 29 91 30 93
1 1 22 7 46 12 70 14 156 3 224 -29z m562 -1272 c29 -171 106 -368 203 -517
23 -35 40 -64 38 -65 -2 -1 -29 -15 -60 -30 -90 -45 -179 -155 -202 -249 -6
-27 -46 -46 -133 -63 -40 -8 -83 -57 -83 -93 0 -15 7 -63 15 -107 18 -89 24
-245 12 -287 -13 -47 -35 -34 -41 25 -13 127 -16 246 -10 338 l7 99 67 87
c142 188 209 339 217 488 5 101 -5 132 -50 153 -24 12 -33 11 -71 -8 -38 -18
-107 -90 -119 -123 -8 -22 -17 0 -32 71 -25 118 14 238 98 304 38 31 103 60
122 54 5 -1 15 -36 22 -77z m198 -48 c361 -259 616 -502 694 -663 56 -116 80
-278 48 -322 -44 -61 -247 59 -477 281 -152 146 -268 315 -339 493 -34 85 -81
257 -81 297 l0 24 33 -22 c17 -13 73 -52 122 -88z m-267 -358 c-7 -111 -74
-282 -143 -368 -15 -19 -16 -18 -10 25 12 86 58 265 87 343 24 61 34 77 50 77
19 0 20 -4 16 -77z m-544 -510 c-20 -118 -47 -210 -66 -230 -28 -30 -54 -29
-74 2 -27 42 1 152 54 209 21 22 71 53 90 56 2 0 0 -17 -4 -37z m-2977 -89
c56 -27 140 -116 169 -178 33 -72 47 -197 34 -297 -16 -119 -43 -213 -61 -217
-39 -7 -202 167 -255 273 -64 129 -68 246 -14 389 22 57 23 58 56 53 18 -3 50
-14 71 -23z m1247 -759 c191 -17 361 -156 397 -325 19 -87 -30 -312 -101 -465
-44 -96 -132 -197 -212 -241 -50 -28 -59 -29 -173 -29 -111 0 -120 -1 -120
-19 0 -10 7 -22 15 -26 145 -67 171 -94 178 -184 3 -45 -3 -64 -52 -168 -30
-64 -69 -157 -87 -207 -17 -50 -34 -91 -38 -91 -32 0 -443 118 -471 135 -5 3
-2 25 6 48 9 23 16 76 17 117 0 61 -4 85 -25 130 -35 74 -63 104 -126 139
l-54 29 141 88 c382 239 499 331 554 431 68 126 89 298 49 408 -22 59 -28 135
-16 207 6 32 10 37 28 33 11 -2 52 -7 90 -10z m-199 -141 c32 -8 79 -178 70
-252 -8 -65 -39 -171 -65 -223 -44 -84 -159 -175 -470 -369 -91 -57 -173 -110
-183 -118 -9 -8 -20 -13 -23 -10 -11 11 79 383 123 508 22 62 89 195 124 247
65 94 169 184 244 211 32 11 146 15 180 6z m-604 -1093 c98 -62 143 -194 105
-309 -10 -29 -22 -52 -27 -52 -12 0 -212 89 -223 100 -4 4 1 36 12 72 12 34
26 92 32 128 7 36 13 71 16 78 6 20 37 14 85 -17z m-150 -63 c-17 -87 -43
-168 -54 -168 -14 0 -147 74 -147 82 0 4 33 32 73 61 105 78 132 96 136 91 2
-2 -2 -32 -8 -66z m-160 -169 c68 -39 89 -56 84 -68 -3 -9 -29 -58 -58 -110
-69 -124 -142 -200 -240 -247 -137 -65 -221 -54 -267 35 -33 65 -27 95 28 152
35 37 344 284 360 288 1 1 43 -22 93 -50z"/>
<path d="M4543 6962 c-78 -28 -129 -69 -176 -139 l-41 -63 -22 43 c-30 59 -79
105 -144 136 -48 23 -68 26 -155 26 -92 0 -106 -3 -168 -32 -89 -42 -168 -121
-210 -210 -56 -122 -50 -315 14 -403 37 -50 87 -74 139 -65 33 6 41 2 69 -26
28 -28 37 -31 73 -26 23 3 53 14 67 24 26 19 26 19 61 -5 63 -43 148 -10 180
69 10 23 19 29 41 29 27 0 29 -3 29 -38 0 -45 29 -82 64 -82 26 0 65 35 97 86
17 29 25 33 59 31 34 -1 40 -5 45 -28 3 -14 20 -39 36 -55 25 -24 39 -29 81
-29 l50 0 -47 -40 c-133 -112 -304 -264 -339 -302 -21 -24 -42 -43 -46 -43 -5
0 -55 41 -112 91 -56 50 -137 116 -178 147 -41 31 -102 83 -135 114 -61 58
-82 67 -103 46 -32 -32 2 -71 208 -235 69 -55 158 -130 197 -165 43 -39 85
-68 104 -72 38 -7 81 13 111 54 22 31 173 166 287 258 232 187 318 346 309
567 -3 75 -9 101 -34 155 -58 123 -153 188 -287 196 -54 4 -85 0 -124 -14z
m253 -106 c29 -19 55 -44 59 -56 3 -11 10 -20 15 -20 18 0 40 -105 40 -185 0
-46 -7 -105 -16 -135 -24 -83 -84 -189 -84 -150 0 24 -29 19 -58 -9 -31 -32
-56 -38 -82 -21 -18 11 -16 13 35 31 52 19 83 64 77 112 -11 97 -134 97 -197
-1 -11 -17 -28 -31 -39 -32 -15 0 -17 5 -12 34 5 25 2 39 -12 56 -18 22 -22
23 -51 10 -39 -16 -51 -37 -51 -90 0 -22 -8 -55 -17 -73 l-17 -32 -11 100
c-11 107 -19 119 -64 95 -16 -8 -21 -21 -21 -55 0 -40 -3 -45 -22 -45 -17 0
-27 10 -40 40 -23 55 -71 78 -128 61 -55 -16 -87 -54 -101 -121 -13 -60 -38
-90 -75 -90 -20 0 -24 5 -24 28 0 15 9 41 21 57 35 51 96 181 104 221 11 58 6
146 -11 172 -20 30 -64 29 -102 -3 -53 -45 -100 -187 -111 -335 l-6 -85 -35 0
c-28 0 -38 6 -57 33 -53 79 -54 227 -2 330 37 76 88 125 166 164 85 42 185 44
265 5 67 -33 122 -110 139 -199 24 -119 83 -120 113 -1 19 77 74 164 122 194
90 55 201 53 290 -5z"/>
<path d="M2914 6829 c-40 -11 -57 -32 -57 -70 0 -40 15 -49 91 -49 54 0 62 -2
62 -19 0 -11 -20 -145 -45 -298 -25 -153 -48 -295 -51 -315 l-6 -38 -52 0
c-71 0 -120 -31 -124 -79 -2 -20 2 -37 9 -42 7 -4 108 -5 224 -2 237 6 255 11
255 67 0 44 -17 57 -90 63 -49 5 -60 9 -60 24 0 24 36 269 59 404 11 61 22
133 26 160 3 28 9 56 13 62 4 6 38 12 75 15 58 3 72 8 88 29 25 32 20 70 -11
86 -30 15 -356 17 -406 2z"/>
<path d="M2580 5379 c-139 -36 -282 -123 -402 -244 -70 -71 -101 -122 -96
-157 6 -39 26 -30 100 39 113 106 157 139 252 187 157 80 280 93 338 36 35
-35 36 -70 3 -125 -28 -50 -90 -91 -194 -134 -76 -31 -87 -40 -97 -78 -12 -45
-1 -52 74 -46 78 6 108 -4 123 -45 14 -35 -11 -98 -54 -140 -47 -46 -275 -147
-292 -130 -5 4 3 70 25 223 6 39 24 126 40 194 19 76 27 128 21 134 -14 14
-68 -2 -101 -29 -36 -31 -42 -49 -84 -264 -39 -200 -59 -362 -54 -435 3 -48 4
-50 31 -48 35 2 95 46 107 77 6 17 32 31 97 56 291 109 417 218 418 362 0 49
-4 61 -30 88 -16 17 -43 34 -59 38 l-30 8 46 23 c218 105 253 354 59 419 -50
18 -156 14 -241 -9z"/>
<path d="M4105 5375 c-59 -30 -114 -150 -135 -295 -17 -117 -18 -120 -43 -120
-60 0 -125 -30 -166 -78 -22 -26 -50 -57 -61 -70 -13 -14 -29 -22 -43 -20 -21
3 -22 6 -19 95 3 82 1 94 -17 112 -63 63 -198 -17 -256 -151 -13 -30 -14 -31
-14 -8 -1 14 8 59 18 100 10 41 16 81 13 88 -7 19 -86 15 -105 -5 -18 -21 -42
-112 -52 -195 -6 -50 -13 -62 -53 -102 -50 -51 -78 -58 -91 -23 -10 26 -7 56
21 206 21 111 21 114 3 127 -26 19 -59 18 -84 -3 -27 -23 -59 -149 -68 -263
-5 -73 -3 -93 15 -132 25 -58 50 -71 118 -66 42 4 63 12 95 37 22 18 41 31 42
30 1 -2 9 -17 17 -34 12 -24 23 -31 52 -33 44 -4 60 16 79 93 22 93 89 208
117 203 13 -2 16 -13 13 -47 -6 -88 33 -130 130 -138 54 -5 59 -8 59 -30 0
-33 34 -97 65 -121 60 -47 129 -52 186 -12 l28 21 15 -34 c7 -19 24 -42 37
-51 29 -20 78 -21 85 -2 3 7 -4 59 -14 116 l-20 102 48 83 c63 109 115 225
134 301 23 89 21 205 -4 254 -33 65 -92 91 -145 65z m75 -179 c0 -33 -7 -89
-16 -125 -17 -70 -84 -235 -91 -227 -16 15 39 371 64 420 15 28 16 29 29 11 8
-11 14 -44 14 -79z m-236 -448 c6 -101 6 -102 -21 -130 -31 -33 -52 -35 -83
-10 -31 25 -31 115 0 170 21 36 62 71 86 72 7 0 13 -38 18 -102z"/>
<path d="M4390 5292 c-19 -16 -24 -33 -31 -103 -4 -46 -11 -107 -14 -135 -7
-46 -5 -53 16 -68 36 -25 52 -20 86 32 48 72 64 108 70 163 7 61 -7 92 -52
114 -42 19 -48 19 -75 -3z"/>
<path d="M3060 5269 c-54 -22 -76 -82 -44 -127 21 -30 100 -31 138 -1 32 25
37 86 8 112 -24 22 -71 29 -102 16z"/>
<path d="M4655 4705 c-14 -25 -37 -66 -52 -92 -14 -27 -50 -73 -80 -103 -61
-64 -70 -103 -28 -122 22 -10 31 -7 68 19 23 17 56 49 72 71 17 22 33 41 37
41 10 1 55 -79 64 -113 6 -26 5 -28 -12 -21 -35 15 -84 17 -99 5 -8 -7 -15
-26 -15 -43 0 -37 54 -91 100 -101 66 -13 91 -7 126 28 30 30 34 40 34 88 0
42 -7 65 -35 113 -19 33 -44 78 -56 101 l-21 40 21 47 c12 25 21 50 21 55 0
14 -48 32 -85 32 -30 0 -37 -5 -60 -45z"/>
</g>
</svg>
